# xmcd
#
# Track frame offsets:
# 150
# 17695
# 32084
# 50524
# 64913
# 81777
#
# Disc length: 1325 seconds
#
#
# Revision: 0
# Processed by: cddbd v1.5.1PL2 Copyright (c) Steve Scherf et al.
# Submitted via: FreeRIP 2.942 
#
DISCID=46052b06
DTITLE=Garth Brooks - Karaoke
DYEAR=1900
DGENRE=country
TTITLE0=Karaoke--If Tomorrow Never Comes
TTITLE1=Karaoke--Wrapped Up In You
TTITLE2=Karaoke--Shameless
TTITLE3=Vocal--Wrapped Up In You
TTITLE4=Karaoke--Unanswered Prayers
TTITLE5=Karaoke--The Thunder Rolls
EXTD=A Bunch of Karaoke Songs
EXTT0=
EXTT1=
EXTT2=
EXTT3=
EXTT4=
EXTT5=
PLAYORDER=
